<mxfile host="app.diagrams.net" modified="2021-06-10T15:28:38.722Z" agent="5.0 (Macintosh; Intel Mac OS X 10_15_7) AppleWebKit/537.36 (KHTML, like Gecko) Chrome/90.0.4430.93 Safari/537.36" etag="V9g8uuer2sy_kxfbjFWN" version="13.9.2" type="github">
  <diagram id="4VVbFTu2FVwHRx5DOE8H" name="Page-1">
    <mxGraphModel dx="1298" dy="670" grid="1" gridSize="10" guides="1" tooltips="1" connect="1" arrows="1" fold="1" page="1" pageScale="1" pageWidth="827" pageHeight="800" math="0" shadow="0">
      <root>
        <mxCell id="0" />
        <mxCell id="1" parent="0" />
        <mxCell id="lPmmJmP4kqbY_R4TdMFv-2" value="" style="rounded=0;whiteSpace=wrap;html=1;" vertex="1" parent="1">
          <mxGeometry x="70" y="120" width="680" height="400" as="geometry" />
        </mxCell>
        <mxCell id="lPmmJmP4kqbY_R4TdMFv-3" value="&lt;b&gt;&lt;font style=&quot;font-size: 18px&quot;&gt;轨道&lt;/font&gt;&lt;/b&gt;" style="rounded=0;whiteSpace=wrap;html=1;fillColor=#dae8fc;strokeColor=#6c8ebf;" vertex="1" parent="1">
          <mxGeometry x="100" y="140" width="620" height="50" as="geometry" />
        </mxCell>
        <mxCell id="lPmmJmP4kqbY_R4TdMFv-6" value="&lt;b&gt;&lt;font style=&quot;font-size: 18px&quot;&gt;轨道&lt;/font&gt;&lt;/b&gt;" style="rounded=0;whiteSpace=wrap;html=1;fillColor=#dae8fc;strokeColor=#6c8ebf;" vertex="1" parent="1">
          <mxGeometry x="100" y="200" width="620" height="50" as="geometry" />
        </mxCell>
        <mxCell id="lPmmJmP4kqbY_R4TdMFv-7" value="&lt;b&gt;&lt;font style=&quot;font-size: 18px&quot;&gt;轨道&lt;/font&gt;&lt;/b&gt;" style="rounded=0;whiteSpace=wrap;html=1;fillColor=#dae8fc;strokeColor=#6c8ebf;" vertex="1" parent="1">
          <mxGeometry x="100" y="260" width="620" height="50" as="geometry" />
        </mxCell>
        <mxCell id="lPmmJmP4kqbY_R4TdMFv-17" style="edgeStyle=orthogonalEdgeStyle;rounded=0;orthogonalLoop=1;jettySize=auto;html=1;entryX=0;entryY=0.5;entryDx=0;entryDy=0;" edge="1" parent="1" source="lPmmJmP4kqbY_R4TdMFv-11" target="lPmmJmP4kqbY_R4TdMFv-12">
          <mxGeometry relative="1" as="geometry" />
        </mxCell>
        <mxCell id="lPmmJmP4kqbY_R4TdMFv-11" value="用户" style="shape=umlActor;verticalLabelPosition=bottom;verticalAlign=top;html=1;outlineConnect=0;" vertex="1" parent="1">
          <mxGeometry x="30" y="550" width="80" height="140" as="geometry" />
        </mxCell>
        <mxCell id="lPmmJmP4kqbY_R4TdMFv-18" style="edgeStyle=orthogonalEdgeStyle;rounded=0;orthogonalLoop=1;jettySize=auto;html=1;" edge="1" parent="1" source="lPmmJmP4kqbY_R4TdMFv-12">
          <mxGeometry relative="1" as="geometry">
            <mxPoint x="540" y="620" as="targetPoint" />
          </mxGeometry>
        </mxCell>
        <mxCell id="lPmmJmP4kqbY_R4TdMFv-12" value="&lt;b&gt;&lt;font style=&quot;font-size: 17px&quot;&gt;等待队列&lt;/font&gt;&lt;/b&gt;" style="rounded=0;whiteSpace=wrap;html=1;fillColor=#dae8fc;strokeColor=#6c8ebf;" vertex="1" parent="1">
          <mxGeometry x="240" y="590" width="160" height="60" as="geometry" />
        </mxCell>
        <mxCell id="lPmmJmP4kqbY_R4TdMFv-14" value="&lt;font style=&quot;font-size: 18px&quot;&gt;发弹幕&lt;/font&gt;" style="text;html=1;align=center;verticalAlign=middle;resizable=0;points=[];autosize=1;" vertex="1" parent="1">
          <mxGeometry x="140" y="580" width="70" height="20" as="geometry" />
        </mxCell>
        <mxCell id="lPmmJmP4kqbY_R4TdMFv-20" style="edgeStyle=orthogonalEdgeStyle;rounded=0;orthogonalLoop=1;jettySize=auto;html=1;entryX=1;entryY=0.25;entryDx=0;entryDy=0;" edge="1" parent="1" source="lPmmJmP4kqbY_R4TdMFv-16" target="lPmmJmP4kqbY_R4TdMFv-2">
          <mxGeometry relative="1" as="geometry" />
        </mxCell>
        <mxCell id="lPmmJmP4kqbY_R4TdMFv-22" style="edgeStyle=orthogonalEdgeStyle;rounded=0;orthogonalLoop=1;jettySize=auto;html=1;entryX=0.5;entryY=1;entryDx=0;entryDy=0;" edge="1" parent="1" source="lPmmJmP4kqbY_R4TdMFv-16" target="lPmmJmP4kqbY_R4TdMFv-12">
          <mxGeometry relative="1" as="geometry">
            <Array as="points">
              <mxPoint x="590" y="680" />
              <mxPoint x="320" y="680" />
            </Array>
          </mxGeometry>
        </mxCell>
        <mxCell id="lPmmJmP4kqbY_R4TdMFv-16" value="" style="rhombus;whiteSpace=wrap;html=1;" vertex="1" parent="1">
          <mxGeometry x="550" y="570" width="80" height="90" as="geometry" />
        </mxCell>
        <mxCell id="lPmmJmP4kqbY_R4TdMFv-19" value="&lt;b&gt;&lt;font style=&quot;font-size: 19px&quot;&gt;有空位吗&lt;/font&gt;&lt;/b&gt;" style="text;html=1;align=center;verticalAlign=middle;resizable=0;points=[];autosize=1;" vertex="1" parent="1">
          <mxGeometry x="545" y="600" width="90" height="20" as="geometry" />
        </mxCell>
        <mxCell id="lPmmJmP4kqbY_R4TdMFv-21" value="&lt;b&gt;&lt;font style=&quot;font-size: 16px&quot;&gt;有&lt;/font&gt;&lt;/b&gt;" style="text;html=1;align=center;verticalAlign=middle;resizable=0;points=[];autosize=1;" vertex="1" parent="1">
          <mxGeometry x="665" y="550" width="30" height="20" as="geometry" />
        </mxCell>
        <mxCell id="lPmmJmP4kqbY_R4TdMFv-23" value="&lt;b&gt;&lt;font style=&quot;font-size: 17px&quot;&gt;没有&lt;/font&gt;&lt;/b&gt;" style="text;html=1;align=center;verticalAlign=middle;resizable=0;points=[];autosize=1;" vertex="1" parent="1">
          <mxGeometry x="405" y="690" width="50" height="20" as="geometry" />
        </mxCell>
      </root>
    </mxGraphModel>
  </diagram>
</mxfile>
